# AST/ASF file generated using VICON BodyLanguage
# -----------------------------------------------
:version 1.10
:name VICON
:units
  mass 1.0
  length 0.45
  angle deg
:documentation
   .ast/.asf automatically generated from VICON data using
   VICON BodyBuilder and BodyLanguage model FoxedUp or BRILLIANT.MOD
:root
   order TX TY TZ RX RY RZ
   axis XYZ
   position 0 0 0  
   orientation 0 0 0 
:bonedata
  begin
     id 1 
     name lhipjoint
     direction 0.596438 -0.722117 0.35044 
     length 2.43043 
     axis 0 0 0  XYZ
  end
  begin
     id 2 
     name lfemur
     direction 0.34202 -0.939693 0  
     length 7.0339  
     axis 0 0 20  XYZ
    dof rx ry rz
    limits (-160.0 20.0)
           (-70.0 70.0)
           (-60.0 70.0)
  end
  begin
     id 3 
     name ltibia
     direction 0.34202 -0.939693 0   
     length 7.56602   
     axis 0 0 20   XYZ
    dof rx
    limits (-10.0 170.0)
  end
  begin
     id 4 
     name lfoot
     direction 0.0985677 -0.270812 0.957572   
     length 1.85172   
     axis -90 7.62852e-016 20   XYZ
    dof rx rz
    limits (-45.0 90.0)
           (-70.0 20.0)
  end
  begin
     id 5 
     name ltoes
     direction 1.53534e-011 -4.21843e-011 1   
     length 0.929904   
     axis -90 7.62852e-016 20   XYZ
    dof rx
    limits (-90.0 20.0)
  end
  begin
     id 6 
     name rhipjoint
     direction -0.585088 -0.729594 0.354068   
     length 2.40552  
     axis 0 0 0  XYZ 
  end
  begin
     id 7 
     name rfemur
     direction -0.34202 -0.939693 0   
     length 7.12573   
     axis 0 0 -20   XYZ
    dof rx ry rz
    limits (-160.0 20.0)
           (-70.0 70.0)
           (-70.0 60.0)
  end
  begin
     id 8 
     name rtibia
     direction -0.34202 -0.939693 0   
     length 7.35777   
     axis 0 0 -20   XYZ
    dof rx
    limits (-10.0 170.0)
 end
 begin
     id 9 
     name rfoot
     direction -0.120907 -0.33219 0.935431   
     length 2.0994  
     axis -90 -7.62852e-016 -20   XYZ
    dof rx rz
    limits (-45.0 90.0)
           (-20.0 70.0)
  end
  begin
     id 10 
     name rtoes
     direction -1.53577e-011 -4.21787e-011 1   
     length 1.04244   
     axis -90 -7.62852e-016 -20   XYZ
    dof rx
    limits (-90.0 20.0)
  end
  begin
     id 11 
     name lowerback
     direction 0.00268363 0.993603 -0.112896   
     length 2.15839   
     axis 0 0 0   XYZ
    dof rx ry rz
    limits (-20.0 45.0)
           (-30.0 30.0)
           (-30.0 30.0)
  end
  begin
     id 12 
     name upperback
     direction 0.0272563 0.999411 -0.0208618   
     length 2.16443   
     axis 0 0 0   XYZ
    dof rx ry rz
    limits (-20.0 45.0)
           (-30.0 30.0)
           (-30.0 30.0)
  end
  begin
     id 13 
     name thorax
     direction 0.0254655 0.999174 0.0316806   
     length 2.19003   
     axis 0 0 0   XYZ
    dof rx ry rz
    limits (-20.0 45.0)
           (-30.0 30.0)
           (-30.0 30.0)
  end
  begin
     id 14 
     name lowerneck
     direction -0.0102178 0.988048 0.15381   
     length 1.61507   
     axis 0 0 0   XYZ
    dof rx ry rz
    limits (-20.0 45.0)
           (-30.0 30.0)
           (-30.0 30.0)
  end
  begin
     id 15 
     name upperneck
     direction -0.0061965 0.994088 -0.108398   
     length 1.64042   
     axis 0 0 0   XYZ
    dof rx ry rz
    limits (-20.0 45.0)
           (-30.0 30.0)
           (-30.0 30.0)
  end
  begin
     id 16
     name head
     direction -0.00151929 0.998591 -0.0530385  
     length 1.64343  
     axis 0 0 0   XYZ
    dof rx ry rz
    limits (-20.0 45.0)
           (-30.0 30.0)
           (-30.0 30.0)
  end
  begin
     id 17 
     name lclavicle
     direction 0.948974 0.284245 -0.136574  
     length 3.3483  
     axis 0 0 0   XYZ
    dof ry rz
    limits (-20.0 10.0)
           (0.0 20.0)
  end
  begin
     id 18 
     name lhumerus
     direction 1 -4.48961e-011 1.68576e-027   
     length 4.93485   
     axis -180 -30 -90   XYZ
    dof rx ry rz
    limits (-60.0 90.0)
           (-90.0 90.0)
           (-90.0 90.0)
  end
  begin
     id 19
     name lradius
     direction 1 -4.48965e-011 -2.46405e-027   
     length 3.41719   
     axis -180 -30 -90   XYZ
    dof rx
    limits (-10.0 170.0)
  end
  begin
     id 20
     name lwrist
     direction 1 -4.48968e-011 -8.00486e-028   
     length 1.7086   
     axis 3.27501e-015 90 90   XYZ
    dof ry
    limits (-180.0 0.0)
 end
  begin
     id 21 
     name lhand
     direction 1 -4.48977e-011 -1.60161e-027   
     length 0.6241   
     axis 1.02148e-015 90 90   XYZ
    dof rx rz
    limits (-90.0 90.0)
           (-45.0 45.0)
  end
  begin
     id 22 
     name lfingers
     direction 1 -4.49049e-011 -3.21275e-027   
     length 0.503166   
     axis 2.04295e-015 90 90   XYZ
    dof rx
    limits (0.0 90.0)
  end
  begin
     id 23
     name lthumb
     direction 0.707107 -6.34975e-011 0.707107   
     length 0.722448   
     axis -90 45 -1.62303e-014   XYZ
    dof rx rz
    limits (-45.0 45.0)
           (-45.0 45.0)
  end
  begin
     id 24 
     name rclavicle
     direction -0.904485 0.355099 -0.236246   
     length 3.18329  
     axis 0 0 0   XYZ 
    dof ry rz
    limits (-10.0 20.0)
           (-20.0 0.0)
  end
  begin
     id 25 
     name rhumerus
     direction -1 -4.48953e-011 1.32816e-027  
     length 5.22034   
     axis -180 30 90   XYZ
    dof rx ry rz
    limits (-90.0 60.0)
           (-90.0 90.0)
           (-90.0 90.0)
  end
  begin
     id 26 
     name rradius
     direction -1 -4.48965e-011 -3.93727e-027   
     length 3.41809   
     axis -180 30 90   XYZ
    dof rx
    limits (-10.0 170.0)
  end
  begin
     id 27 
     name rwrist
     direction -1 -4.48962e-011 -8.003e-028   
     length 1.70904   
     axis 3.27501e-015 -90 -90   XYZ
    dof ry
    limits (-180.0 0.0)
  end
  begin
     id 28
     name rhand
     direction -1 -4.49008e-011 -1.60365e-027   
     length 0.77534   
     axis 1.02148e-015 -90 -90   XYZ
    dof rx rz
    limits (-90.0 90.0)
           (-45.0 45.0)
  end
  begin
     id 29
     name rfingers
     direction -1 -4.49001e-011 -3.2064e-027   
     length 0.625099   
     axis 2.04295e-015 -90 -90   XYZ
    dof rx
    limits (0.0 90.0)
  end
  begin
     id 30
     name rthumb
     direction -0.707107 -6.34989e-011 0.707107   
     length 0.897521   
     axis -90 -45 1.62303e-014   XYZ
    dof rx rz
    limits (-45.0 45.0)
           (-45.0 45.0)
  end
:hierarchy
  begin
    root lhipjoint rhipjoint lowerback
    lhipjoint lfemur
    lfemur ltibia
    ltibia lfoot
    lfoot ltoes
    rhipjoint rfemur
    rfemur rtibia
    rtibia rfoot
    rfoot rtoes
    lowerback upperback
    upperback thorax
    thorax lowerneck lclavicle rclavicle
    lowerneck upperneck
    upperneck head
    lclavicle lhumerus
    lhumerus lradius
    lradius lwrist
    lwrist lhand lthumb
    lhand lfingers
    rclavicle rhumerus
    rhumerus rradius
    rradius rwrist
    rwrist rhand rthumb
    rhand rfingers
  end

#!OML:ASF \\sashay\E\Suitcase\Project 1\Capture day 1\Session 1\Male1.ASF
:FULLY-SPECIFIED
:DEGREES
679
root 0.319043 17.1032 -3.35176 3.92808 5.88804 4.07254
lowerback 5.98974 0.864078 -7.19356
upperback 1.76199 0.710404 -0.676642
thorax -1.61218 0.365239 3.28464
lowerneck -10.8626 -0.0996937 -5.42193
upperneck 26.7084 1.10471 0.087635
head 10.2939 -0.00161631 1.09423
rclavicle 5.32991e-015 3.54831e-014
rhumerus -41.4796 -37.195 -54.6874
rradius 10.9876
rwrist 4.25564
rhand -8.5948 13.0458
rfingers 7.12502
rthumb 17.3365 -16.201
lclavicle 5.32991e-015 3.54831e-014
lhumerus -28.2197 -6.7873 80.085
lradius 45.2434
lwrist 3.6517
lhand -2.84028 46.8487
lfingers 7.12502
lthumb 22.8672 75.513
rfemur -33.9182 -0.304717 14.2339
rtibia 60.6276
rfoot -15.2184 -6.74526
rtoes 8.97722
lfemur -8.82328 -4.62436 -31.2063
ltibia 25.3533
lfoot -18.6309 -13.0703
ltoes 29.0901
680
root 0.319487 17.0995 -3.24803 3.91217 6.07128 4.39178
lowerback 5.8349 0.751985 -7.5652
upperback 1.87109 0.558217 -0.739481
thorax -1.3973 0.279755 3.44061
lowerneck -11.0485 -0.106836 -5.44167
upperneck 26.7008 1.12821 0.0217475
head 10.3278 -0.0014306 1.07765
rclavicle 7.3923e-015 -8.19987e-015
rhumerus -40.4269 -37.1571 -55.4657
rradius 10.8924
rwrist 4.19992
rhand -8.67253 12.7421
rfingers 7.12502
rthumb 17.2616 -16.5113
lclavicle 7.3923e-015 -8.19987e-015
lhumerus -27.5021 -7.18822 80.2445
lradius 45.4742
lwrist 3.77025
lhand -2.88611 46.4937
lfingers 7.12502
lthumb 22.8233 75.1634
rfemur -34.3006 -0.162849 13.6482
rtibia 58.7739
rfoot -15.1956 -6.56425
rtoes 8.34042
lfemur -8.21503 -4.61884 -31.5289
ltibia 25.0936
lfoot -18.7712 -13.2211
ltoes 29.4498
681
root 0.315085 17.1015 -3.14616 3.90729 6.17661 4.66967
lowerback 5.74068 0.78838 -8.00229
upperback 1.88693 0.591617 -0.742427
thorax -1.3348 0.293641 3.68057
lowerneck -11.0286 -0.204254 -5.49913
upperneck 26.7135 1.02084 -0.0430583
head 10.3332 -0.0636602 1.05171
rclavicle -1.63935e-014 1.19768e-014
rhumerus -39.8955 -37.1147 -55.8939
rradius 11.0593
rwrist 3.65737
rhand -8.6453 12.6144
rfingers 7.12502
rthumb 17.2878 -16.6367
lclavicle -1.63935e-014 1.19768e-014
lhumerus -26.9461 -7.94846 80.6988
lradius 45.7652
lwrist 3.86144
lhand -2.71331 48.1772
lfingers 7.12502
lthumb 22.9891 76.8263
rfemur -34.6295 -0.0830619 13.1474
rtibia 56.7756
rfoot -15.0478 -6.42563
rtoes 7.5788
lfemur -7.63875 -4.56821 -31.7954
ltibia 24.8679
lfoot -18.9055 -13.3187
ltoes 29.7945
682
root 0.32146 17.1039 -3.04473 3.73359 6.26536 4.61829
lowerback 5.84024 0.819004 -7.69658
upperback 1.9318 0.640167 -0.88505
thorax -1.34604 0.317489 3.35725
lowerneck -11.1351 -0.328441 -5.40527
upperneck 26.8049 0.814599 0.0284498
head 10.3928 -0.142966 1.0375
rclavicle -3.74461e-014 5.76476e-015
rhumerus -38.9123 -35.1818 -58.2907
rradius 12.0323
rwrist 0.487156
rhand -8.99376 13.0023
rfingers 7.12502
rthumb 16.9524 -16.2779
lclavicle -3.74461e-014 5.76476e-015
lhumerus -26.075 -9.07505 80.7558
lradius 45.432
lwrist 3.9763
lhand -0.332605 50.6445
lfingers 7.12502
lthumb 25.2718 78.9906
rfemur -34.7451 -0.059981 13.0134
rtibia 54.6836
rfoot -14.8193 -6.32928
rtoes 6.89648
lfemur -6.82332 -4.999 -31.8136
ltibia 24.4767
lfoot -18.8911 -12.7863
ltoes 29.769
683
root 0.319847 17.1025 -2.93454 3.62989 6.16784 4.2443
lowerback 5.74472 0.75968 -7.49456
upperback 1.89908 0.583344 -0.665332
thorax -1.32101 0.288812 3.47707
lowerneck -11.1564 -0.280014 -5.68642
upperneck 26.9035 0.949655 0.0297716
head 10.4303 -0.111621 1.10273
rclavicle 5.89521e-015 4.37326e-015
rhumerus -38.0597 -35.3216 -58.4546
rradius 11.4706
rwrist 0.732722
rhand -9.0941 13.102
rfingers 7.12502
rthumb 16.8559 -16.1864
lclavicle 5.89521e-015 4.37326e-015
lhumerus -25.7271 -9.29159 81.1013
lradius 45.394
lwrist 3.79707
lhand -3.27594 46.5199
lfingers 7.12502
lthumb 22.4491 75.2352
rfemur -34.9184 0.279895 13.3092
rtibia 52.4534
rfoot -14.4769 -6.49631
rtoes 6.59951
lfemur -6.20482 -4.7986 -31.393
ltibia 24.1344
lfoot -18.9037 -12.7384
ltoes 30.0532
684
root 0.316954 17.0995 -2.8393 3.76981 6.41896 4.55364
lowerback 5.68905 0.654255 -7.79269
upperback 1.77924 0.423771 -0.793404
thorax -1.3963 0.215316 3.522
lowerneck -10.9869 -0.277286 -5.59645
upperneck 26.8919 0.921518 0.0270474
head 10.3933 -0.115089 1.08236
rclavicle -1.10325e-014 -2.37051e-014
rhumerus -37.6781 -35.1995 -59.0858
rradius 11.8173
rwrist 0.232958
rhand -9.04811 13.3199
rfingers 7.12502
rthumb 16.9001 -15.9648
lclavicle -1.10325e-014 -2.37051e-014
lhumerus -25.2093 -10.1126 81.2317
lradius 45.1719
lwrist 3.91711
lhand -1.47507 48.7577
lfingers 7.12502
lthumb 24.1768 77.2539
rfemur -35.2374 -0.0901215 12.8841
rtibia 50.1629
rfoot -13.93 -6.47298
rtoes 6.65497
lfemur -5.78355 -5.22232 -31.7453
ltibia 23.771
lfoot -18.6632 -12.4955
ltoes 30.4635
685
root 0.314558 17.1004 -2.72901 3.51015 6.25181 4.18419
lowerback 5.76037 0.690163 -7.37022
upperback 1.83574 0.491991 -0.756514
thorax -1.38368 0.247255 3.31887
lowerneck -11.1411 -0.276337 -5.69936
upperneck 26.9497 0.928571 0.134454
head 10.4436 -0.111898 1.13993
rclavicle -3.19298e-015 6.65929e-015
rhumerus -37.0479 -34.356 -60.2893
rradius 12.3248
rwrist -0.998184
rhand -8.98921 13.4621
rfingers 7.12502
rthumb 16.9568 -15.8177
lclavicle -3.19298e-015 6.65929e-015
lhumerus -24.5785 -11.0016 81.4035
lradius 45.2046
lwrist 4.07225
lhand -3.05523 47.3025
lfingers 7.12502
lthumb 22.661 75.9921
rfemur -35.1114 0.213437 13.2468
rtibia 47.7855
rfoot -13.4168 -6.74317
rtoes 6.9322
lfemur -4.98098 -5.31178 -31.4013
ltibia 23.3516
lfoot -18.4129 -12.1144
ltoes 31.0719
686
root 0.315446 17.1061 -2.62972 3.53209 6.19738 4.10234
lowerback 5.56785 0.783468 -7.3804
upperback 1.76441 0.630515 -0.66662
thorax -1.36678 0.317324 3.40919
lowerneck -10.7159 -0.325768 -5.76348
upperneck 26.7845 0.858366 0.0672362
head 10.303 -0.152216 1.11603
rclavicle 1.37658e-014 2.29596e-014
rhumerus -36.7245 -34.0604 -60.7101
rradius 12.774
rwrist -1.81417
rhand -8.95591 13.6611
rfingers 7.12502
rthumb 16.9889 -15.6159
lclavicle 1.37658e-014 2.29596e-014
lhumerus -24.2258 -11.6867 81.8749
lradius 45.0674
lwrist 3.56808
lhand -2.9249 46.3632
lfingers 7.12502
lthumb 22.786 75.0374
rfemur -35.2186 0.177007 13.322
rtibia 45.3014
rfoot -12.6846 -6.95288
rtoes 7.24979
lfemur -4.46482 -5.35973 -31.3315
ltibia 22.878
lfoot -17.9719 -12.0343
ltoes 32.0977
687
root 0.335113 17.1025 -2.53111 3.73127 6.39388 4.4935
lowerback 5.42868 0.628793 -7.45163
upperback 1.69034 0.42698 -0.871239
thorax -1.34172 0.217259 3.25122
lowerneck -10.8239 -0.220707 -5.62455
upperneck 26.8285 1.01121 -0.030122
head 10.3361 -0.0811724 1.07647
rclavicle 1.9866e-014 -4.27387e-015
rhumerus -35.9646 -33.1992 -61.7838
rradius 12.844
rwrist -3.00557
rhand -9.0899 14.4803
rfingers 7.12502
rthumb 16.8599 -14.8078
lclavicle 1.9866e-014 -4.27387e-015
lhumerus -23.6296 -12.5992 81.97
lradius 44.9084
lwrist 4.18403
lhand -3.34589 46.8728
lfingers 7.12502
lthumb 22.382 75.5961
rfemur -35.3614 -0.763874 12.9366
rtibia 42.7793
rfoot -11.8283 -6.63402
rtoes 7.53972
lfemur -3.96157 -5.45648 -31.8216
ltibia 22.3749
lfoot -17.5265 -12.1961
ltoes 33.3816
